<!-- Generator: Adobe Illustrator 18.1.1, SVG Export Plug-In  -->
<svg version="1.1"
	 xmlns="http://www.w3.org/2000/svg" xmlns:xlink="http://www.w3.org/1999/xlink" xmlns:a="http://ns.adobe.com/AdobeSVGViewerExtensions/3.0/"
	 x="0px" y="0px" width="128.25px" height="111.892px" viewBox="0 0 128.25 111.892" enable-background="new 0 0 128.25 111.892"
	 xml:space="preserve">
<defs>
</defs>
<path fill="#971B81" d="M127.899,63.992c-0.775,6.563-1.646,9.008-3.042,12.583c-8.238,21.097-24.868,31.891-47.094,35.192
	c-1.747,0.259-3.566,0.034-5.609,0.034c0-5.257,0-10.194,0-15.62c13.936-1.082,25.559-6.615,33.315-18.716
	c5.015-7.824,7.348-16.482,6.084-25.696c-2.915-21.244-19.506-35.886-40.097-35.803C53.009,16.039,35.434,30.647,33.25,47.956
	c4.507,0,8.984,0,14.7,0c-8.25,10.999-15.932,21.24-24.065,32.083C15.828,69.297,8.197,59.124,0,48.196c5.881,0,10.923,0,16.149,0
	c0.797-3.122,1.381-5.844,2.187-8.499C26,14.469,49.222-1.376,76.316,0.094c24.276,1.317,45.704,20.5,50.563,45.227
	C127.06,46.243,129.036,54.358,127.899,63.992z"/>
<path fill="#971B81" d="M64.267,32.126c2.512,0,4.659,0,7.346,0c0,7.755,0,15.468,0,23.708c8.23,0,15.947,0,23.948,0
	c0,2.901,0,5.272,0,7.899c-10.432,0-20.674,0-31.294,0C64.267,53.339,64.267,42.978,64.267,32.126z"/>
</svg>