<!-- Generator: Adobe Illustrator 18.1.1, SVG Export Plug-In  -->
<svg version="1.1"
	 xmlns="http://www.w3.org/2000/svg" xmlns:xlink="http://www.w3.org/1999/xlink" xmlns:a="http://ns.adobe.com/AdobeSVGViewerExtensions/3.0/"
	 x="0px" y="0px" width="124.484px" height="113.146px" viewBox="0 0 124.484 113.146" enable-background="new 0 0 124.484 113.146"
	 xml:space="preserve">
<defs>
</defs>
<path fill="#2CAD6E" d="M71.558,113.146c-3.109-2.837-5.425-4.95-8.184-7.467c3.877-3.463,7.331-7.022,11.27-9.923
	c3.454-2.544,3.657-5.461,3.65-9.412c-0.014-7.549-0.232-15.486,1.911-22.574c5.546-18.34,19.925-26.399,37.765-29.509
	c8.727,16.189,11.357,46.101-9.301,57.678c-4.338,2.431-9.23,3.873-14.241,5.221c9.262-14.459,15.966-29.468,17.652-47.033
	c-3.382,7.955-6.04,15.629-9.818,22.705c-3.974,7.445-8.594,14.642-13.715,21.349C83.532,100.746,77.531,106.557,71.558,113.146z"/>
<path fill="#2CAD6E" d="M7.077,81.385c16.745,0,33.132,0,50.103,0c0,9.686,0,19.05,0,28.752c-10.35,0-20.781,0.079-31.207-0.107
	c-1.215-0.022-2.857-1.235-3.532-2.358C17.237,99.016,12.222,90.244,7.077,81.385z"/>
<path fill="#2CAD6E" d="M66.511,35.997c2.046-1.347,4.092-2.694,6.419-4.226c-3.06-5.526-5.962-10.917-9.008-16.225
	c-3.01-5.247-6.166-10.41-9.191-15.498c9.962,0,20.387-0.19,30.792,0.181c1.797,0.064,3.982,2.181,5.167,3.911
	c2.799,4.09,5.104,8.518,7.693,12.952c2.598-1.244,4.902-2.347,8.442-4.041c-4.716,8.278-8.738,15.455-12.93,22.531
	c-0.463,0.782-1.894,1.383-2.886,1.396c-8.101,0.111-16.205,0.063-24.308,0.063C66.638,36.693,66.574,36.345,66.511,35.997z"/>
<path fill="#2CAD6E" d="M44.174,43.438c-8.567-4.829-16.654-9.388-25.417-14.328c4.875-8.125,9.143-16.382,14.517-23.843
	c4.506-6.258,16.084-5.264,20.542,1.101c1.713,2.446,3.298,5.04,4.495,7.763c0.559,1.272,0.591,3.305-0.057,4.492
	C53.799,26.789,49.101,34.824,44.174,43.438z"/>
<path fill="#2CAD6E" d="M7.455,47.772C5.222,46.135,3.162,44.624,0,42.307c9.35,0,17.399-0.052,25.445,0.07
	c0.943,0.014,2.265,0.76,2.745,1.565c4.21,7.059,8.269,14.209,13.103,22.601c-3.483-1.797-5.61-2.894-8.286-4.275
	c-2.308,4.025-3.514,6.242-6.108,9.985c-1.387,2.002-4.815,4.697-6.788,5.201c-1.465,0.374-3.945,0.767-5.396,0.664
	C2.771,77.27-2.611,65.635,2.491,56.551C4.106,53.675,5.737,50.808,7.455,47.772z"/>
</svg>