<!-- Generator: Adobe Illustrator 18.1.1, SVG Export Plug-In  -->
<svg version="1.1"
	 xmlns="http://www.w3.org/2000/svg" xmlns:xlink="http://www.w3.org/1999/xlink" xmlns:a="http://ns.adobe.com/AdobeSVGViewerExtensions/3.0/"
	 x="0px" y="0px" width="98.914px" height="112.008px" viewBox="0 0 98.914 112.008" enable-background="new 0 0 98.914 112.008"
	 xml:space="preserve">
<defs>
</defs>
<path fill="#00A4E0" d="M88.708,55.352c0,2.818,2.285,5.103,5.103,5.103s5.103-2.285,5.103-5.103c0-2.039-1.204-3.785-2.933-4.602
	c-0.207-5.107-0.013-19.161,0.217-22.204c0.238-3.148-1.051-4.654-3.821-6.004c-11.06-5.389-22.362-10.439-32.834-16.828
	C55.512,3.255,48.274,0,48.274,0S40.973,3.241,36.92,5.665C25.307,12.608,12.855,18.147,0,24.672
	c6.933,3.569,12.997,6.984,19.32,9.824c3.306,1.485,4.277,3.467,4.053,6.856c-0.716,10.812,1.112,20.792,9,29.107
	c3.312,3.491,1.415,8.802-3.142,10.529c-6.523,2.472-13.05,4.932-19.581,7.385c-4.489,1.686-8.129,4.634-8.89,9.359
	c-1.76,10.924-0.995,14.719,10.234,14.236c9.813-0.422,19.659-0.076,29.49-0.077c15.997-0.001,31.994-0.028,47.991,0.001
	c3.632,0.007,6.749-0.769,7.614-4.848c1.836-8.665-1.88-15.505-10.179-18.787c-6.333-2.504-12.722-4.865-19.074-7.321
	c-4.057-1.569-6.122-6.73-3.154-9.865c8.566-9.049,9.907-19.943,9.455-31.553c-0.045-1.152,0.395-2.967,1.195-3.404
	c5.739-3.134,11.629-5.99,17.828-9.114c0.077,1.327,0.146,17.832,0.167,23.495C90.237,51.133,88.708,53.054,88.708,55.352z"/>
</svg>