<!-- Generator: Adobe Illustrator 18.1.1, SVG Export Plug-In  -->
<svg version="1.1"
	 xmlns="http://www.w3.org/2000/svg" xmlns:xlink="http://www.w3.org/1999/xlink" xmlns:a="http://ns.adobe.com/AdobeSVGViewerExtensions/3.0/"
	 x="0px" y="0px" width="122.637px" height="122.6px" viewBox="0 0 122.637 122.6" enable-background="new 0 0 122.637 122.6"
	 xml:space="preserve">
<defs>
</defs>
<g>
	<path fill="#E5006B" d="M5.385,36.191c3.328,5.143,7.424,10.88,12.38,17.127c3.056-3.393,6.318-6.864,9.797-10.381
		c0.129-7.517,0.372-15.015,0.711-22.339c-2.848-1.774-5.546-3.341-8.113-4.744C13.927,21.506,8.872,28.423,5.385,36.191z"/>
	<path fill="#E5006B" d="M28.875,9.277c-2.016,1.263-3.953,2.64-5.81,4.125c1.742,0.968,3.521,1.997,5.393,3.126
		C28.595,14.09,28.724,11.669,28.875,9.277z"/>
	<path fill="#E5006B" d="M51.836,37.289c-2.506-1.951-4.944-3.801-7.34-5.576c-2.272,2.062-4.526,4.145-6.749,6.251
		c-2.324,2.202-4.512,4.356-6.634,6.491c-0.064,4.009-0.107,8.093-0.107,12.265c0,4.191,0.043,8.302,0.101,12.325
		c2.146,2.399,4.367,4.827,6.712,7.315c2.254,2.385,4.533,4.755,6.829,7.093c2.382-1.502,4.821-3.073,7.29-4.73
		c2.809-1.886,5.597-3.823,8.369-5.802c0.08-4.63,0.13-9.406,0.13-14.36c0-4.977-0.05-9.79-0.13-14.444
		C57.511,41.793,54.673,39.508,51.836,37.289z"/>
	<path fill="#E5006B" d="M31.922,18.691c3.925,2.496,8.047,5.314,12.352,8.441c4.833-4.307,9.874-8.592,14.998-12.745
		c-0.28-5.045-0.602-9.811-0.969-14.326c-9.26,0.452-17.981,2.962-25.705,7.065C32.346,10.862,32.117,14.714,31.922,18.691z"/>
	<path fill="#E5006B" d="M3.751,40.147C1.326,46.741,0,53.871,0,61.301c0,4.379,0.464,8.64,1.333,12.757
		c3.745-5.562,8.456-11.633,14.051-18.039C10.938,50.425,7.05,45.103,3.751,40.147z"/>
	<path fill="#E5006B" d="M80.07,2.913c-5.682,4.081-11.454,8.477-17.234,13.135c0.472,8.865,0.794,17.795,0.974,26.362
		c5.58,4.669,11.297,9.668,16.962,14.886c11.756-9.597,22.693-19.595,32.082-29.205C105.244,16.291,93.697,7.287,80.07,2.913z"/>
	<path fill="#E5006B" d="M41.556,29.567c-3.393-2.445-6.686-4.711-9.826-6.767c-0.23,5.323-0.409,10.845-0.531,16.532
		c1.328-1.313,2.697-2.628,4.097-3.952C37.332,33.445,39.426,31.504,41.556,29.567z"/>
	<path fill="#E5006B" d="M83.361,59.684c10.966,10.218,21.761,21.14,31.313,31.833c5.078-8.917,7.963-19.22,7.963-30.216
		c0-10.916-2.855-21.157-7.854-30.041C105.201,40.914,94.371,50.668,83.361,59.684z"/>
	<path fill="#E5006B" d="M28.264,92.824c-0.343-7.337-0.572-14.848-0.702-22.371c-3.522-3.959-6.835-7.843-9.912-11.623
		C11.21,66.226,6.19,72.924,2.516,78.712C4.762,86.3,8.435,93.26,13.224,99.298C17.68,97.82,22.728,95.644,28.264,92.824z"/>
	<path fill="#E5006B" d="M75.695,1.696C71.226,0.624,66.564,0.036,61.777,0c0.307,3.855,0.587,7.767,0.816,11.708
		C66.93,8.259,71.313,4.902,75.695,1.696z"/>
	<path fill="#E5006B" d="M80.636,61.904c-5.638,4.54-11.305,8.865-16.827,12.874c-0.185,8.529-0.502,17.395-0.979,26.191
		c6.824,6.278,13.667,12.191,20.316,17.623c12.223-4.664,22.557-13.107,29.592-23.904C103.328,84.037,92.392,72.817,80.636,61.904z"
		/>
	<path fill="#E5006B" d="M47.214,86.035c4.062,4.056,8.171,8.021,12.301,11.868c0.31-6.427,0.547-13.289,0.714-20.554
		c-2.129,1.495-4.242,2.944-6.304,4.328C51.641,83.21,49.41,84.647,47.214,86.035z"/>
	<path fill="#E5006B" d="M61.275,122.596c0.021,0,0.035,0.004,0.05,0.004c6.229,0,12.239-0.938,17.892-2.666
		c-5.538-4.589-11.146-9.434-16.651-14.433C62.207,111.305,61.777,117.042,61.275,122.596z"/>
	<path fill="#E5006B" d="M60.212,39.43c-0.15-7.291-0.388-14.187-0.712-20.663c-4.13,3.392-8.247,6.911-12.301,10.521
		c2.241,1.664,4.501,3.378,6.827,5.193C56.058,36.073,58.13,37.734,60.212,39.43z"/>
	<path fill="#E5006B" d="M31.198,74.463c0.122,5.716,0.295,11.238,0.51,16.558c3.161-1.703,6.439-3.585,9.841-5.656
		c-2.153-2.188-4.283-4.384-6.329-6.56C33.846,77.35,32.518,75.905,31.198,74.463z"/>
	<path fill="#E5006B" d="M20.053,56.131c2.325,2.865,4.784,5.798,7.444,8.85c-0.028-2.758-0.042-5.516-0.042-8.262
		c0-2.866,0.015-5.739,0.042-8.607C24.837,50.859,22.378,53.526,20.053,56.131z"/>
	<path fill="#E5006B" d="M78.018,59.512c-4.599-4.215-9.317-8.36-14.122-12.4c0.058,3.93,0.093,7.76,0.093,11.449
		c0,3.795-0.035,7.732-0.093,11.768C68.701,66.829,73.42,63.205,78.018,59.512z"/>
	<path fill="#E5006B" d="M59.265,102.49c-5.187-4.772-10.271-9.643-15.15-14.532c-4.244,2.599-8.319,4.925-12.206,6.959
		c0.351,7.385,0.796,14.358,1.333,20.872c7.418,3.83,15.722,6.2,24.543,6.697C58.366,116.374,58.864,109.709,59.265,102.49z"/>
	<path fill="#E5006B" d="M15.636,102.182c4.03,4.485,8.698,8.387,13.885,11.535c-0.424-5.515-0.782-11.217-1.076-17.033
		C23.832,98.968,19.558,100.795,15.636,102.182z"/>
</g>
</svg>